<svg width="191" height="22" viewBox="0 0 191 22" fill="none" xmlns="http://www.w3.org/2000/svg">
<path d="M181.691 10.7449C180.83 10.7553 179.971 10.6442 179.141 10.4149L181.631 4.86486L184.121 10.4149C183.329 10.645 182.506 10.7562 181.681 10.7449H181.691ZM190.501 14.9649L184.641 2.27486C184.431 1.68157 184.041 1.16923 183.524 0.810308C183.007 0.451391 182.39 0.264074 181.761 0.274859H181.541C180.902 0.251222 180.272 0.432541 179.743 0.792345C179.214 1.15215 178.814 1.6716 178.601 2.27486L172.781 14.9849C172.458 15.4119 172.317 15.9499 172.39 16.4806C172.463 17.0114 172.744 17.4913 173.171 17.8149C173.598 18.1384 174.136 18.2791 174.667 18.206C175.198 18.1328 175.678 17.8519 176.001 17.4249C176.188 17.2326 176.334 17.0048 176.431 16.7549L177.761 13.9649C179.056 14.3704 180.405 14.5761 181.761 14.5749C183.058 14.6027 184.351 14.4065 185.581 13.9949L186.861 16.7849C186.964 17.0304 187.116 17.2528 187.306 17.4391C187.497 17.6253 187.722 17.7716 187.97 17.8695C188.218 17.9673 188.483 18.0146 188.749 18.0086C189.016 18.0027 189.278 17.9436 189.521 17.8349C189.779 17.722 190.009 17.5562 190.198 17.3481C190.387 17.1401 190.53 16.8946 190.618 16.6275C190.706 16.3605 190.736 16.078 190.708 15.7984C190.679 15.5188 190.591 15.2484 190.451 15.0049L190.501 14.9649ZM169.501 13.8449H168.391V2.16486C168.398 1.88373 168.348 1.60413 168.242 1.34347C168.136 1.0828 167.978 0.846644 167.778 0.649674C167.577 0.452705 167.338 0.29914 167.075 0.198532C166.813 0.0979229 166.532 0.0524221 166.251 0.0648589C165.97 0.0489127 165.688 0.0925677 165.425 0.192964C165.162 0.293361 164.923 0.448234 164.724 0.647439C164.525 0.846644 164.37 1.08569 164.269 1.34891C164.169 1.61213 164.125 1.89359 164.141 2.17486V13.8249H156.691V2.16486C156.691 1.59199 156.464 1.04259 156.059 0.637508C155.653 0.23243 155.104 0.00485897 154.531 0.00485897C153.958 0.00485897 153.409 0.23243 153.004 0.637508C152.599 1.04259 152.371 1.59199 152.371 2.16486V15.8549C152.355 16.1361 152.399 16.4176 152.499 16.6808C152.6 16.944 152.755 17.1831 152.954 17.3823C153.153 17.5815 153.392 17.7364 153.655 17.8368C153.918 17.9371 154.2 17.9808 154.481 17.9649H167.391V19.8549C167.375 20.1361 167.419 20.4176 167.519 20.6808C167.62 20.944 167.775 21.1831 167.974 21.3823C168.173 21.5815 168.412 21.7364 168.675 21.8368C168.938 21.9371 169.22 21.9808 169.501 21.9649C169.928 21.9931 170.352 21.8841 170.712 21.6538C171.072 21.4234 171.348 21.0839 171.501 20.6849C171.599 20.4198 171.64 20.1369 171.621 19.8549V15.9249C171.651 15.6404 171.617 15.3529 171.521 15.0834C171.426 14.8138 171.272 14.5689 171.069 14.3667C170.867 14.1645 170.622 14.01 170.353 13.9145C170.083 13.819 169.796 13.785 169.511 13.8149L169.501 13.8449ZM148.021 13.8449H146.911V2.16486C146.919 1.87655 146.866 1.58979 146.756 1.32333C146.646 1.05686 146.48 0.816673 146.271 0.618471C146.061 0.42027 145.812 0.268512 145.54 0.173115C145.268 0.0777182 144.979 0.0408293 144.691 0.0648589C144.41 0.0489127 144.128 0.0925677 143.865 0.192964C143.602 0.293361 143.363 0.448234 143.164 0.647439C142.965 0.846644 142.81 1.08569 142.709 1.34891C142.609 1.61213 142.565 1.89359 142.581 2.17486V13.8249H135.161V2.16486C135.161 1.59199 134.934 1.04259 134.529 0.637508C134.123 0.23243 133.574 0.00485897 133.001 0.00485897C132.428 0.00485897 131.879 0.23243 131.474 0.637508C131.069 1.04259 130.841 1.59199 130.841 2.16486V15.8549C130.825 16.1361 130.869 16.4176 130.969 16.6808C131.07 16.944 131.225 17.1831 131.424 17.3823C131.623 17.5815 131.862 17.7364 132.125 17.8368C132.388 17.9371 132.67 17.9808 132.951 17.9649H145.861V19.8549C145.845 20.1361 145.889 20.4176 145.989 20.6808C146.09 20.944 146.245 21.1831 146.444 21.3823C146.643 21.5815 146.882 21.7364 147.145 21.8368C147.408 21.9371 147.69 21.9808 147.971 21.9649C148.252 21.9808 148.534 21.9371 148.797 21.8368C149.06 21.7364 149.299 21.5815 149.499 21.3823C149.698 21.1831 149.853 20.944 149.953 20.6808C150.053 20.4176 150.097 20.1361 150.081 19.8549V15.9249C150.108 15.6449 150.074 15.3623 149.98 15.0972C149.886 14.832 149.735 14.5907 149.538 14.3904C149.34 14.1901 149.101 14.0356 148.837 13.9379C148.574 13.8401 148.291 13.8016 148.011 13.8249L148.021 13.8449ZM124.121 0.224859H123.951C122.671 0.224859 121.841 0.834859 120.951 2.11486L113.951 12.0449V2.34486C113.951 1.79056 113.731 1.25896 113.339 0.867006C112.947 0.475055 112.415 0.254859 111.861 0.254859C111.307 0.254859 110.775 0.475055 110.383 0.867006C109.991 1.25896 109.771 1.79056 109.771 2.34486V15.5449C109.749 15.8635 109.795 16.1833 109.907 16.4826C110.019 16.7819 110.193 17.0538 110.419 17.2802C110.644 17.5065 110.915 17.6821 111.214 17.795C111.513 17.9079 111.832 17.9556 112.151 17.9349H112.371C112.993 17.9124 113.599 17.7258 114.126 17.3939C114.653 17.0619 115.082 16.5965 115.371 16.0449L122.371 6.11486V15.8249C122.371 16.3686 122.587 16.89 122.972 17.2744C123.356 17.6589 123.877 17.8749 124.421 17.8749C124.965 17.8749 125.486 17.6589 125.871 17.2744C126.255 16.89 126.471 16.3686 126.471 15.8249V2.61486C126.496 2.29032 126.45 1.96426 126.335 1.65958C126.22 1.35491 126.041 1.079 125.808 0.851235C125.576 0.62347 125.296 0.44937 124.989 0.34116C124.682 0.23295 124.355 0.193254 124.031 0.224859H124.121ZM103.251 0.224859H91.2511C90.9714 0.213142 90.6924 0.260276 90.432 0.363212C90.1717 0.466149 89.9359 0.622593 89.7398 0.822425C89.5438 1.02226 89.3918 1.26102 89.2939 1.52328C89.1959 1.78553 89.1541 2.06543 89.1711 2.34486V16.0449C89.1628 16.3289 89.2136 16.6116 89.3203 16.875C89.4271 17.1384 89.5874 17.3767 89.7911 17.5749C89.992 17.7752 90.2332 17.9306 90.4987 18.0306C90.7642 18.1306 91.048 18.1729 91.3311 18.1549C91.6124 18.1708 91.8939 18.1271 92.1571 18.0268C92.4203 17.9264 92.6594 17.7715 92.8586 17.5723C93.0578 17.3731 93.2126 17.134 93.313 16.8708C93.4134 16.6076 93.4571 16.3261 93.4411 16.0449V4.34486H101.091V16.0449C101.074 16.3306 101.119 16.6166 101.223 16.8836C101.326 17.1505 101.485 17.3922 101.69 17.5922C101.895 17.7922 102.14 17.946 102.41 18.0431C102.679 18.1401 102.966 18.1782 103.251 18.1549C103.539 18.1677 103.827 18.1203 104.095 18.0157C104.364 17.9111 104.607 17.7515 104.811 17.5473C105.014 17.343 105.173 17.0985 105.276 16.8294C105.379 16.5604 105.425 16.2727 105.411 15.9849V2.27486C105.419 1.99402 105.368 1.71466 105.261 1.45498C105.153 1.19529 104.993 0.961122 104.789 0.767715C104.585 0.574308 104.343 0.426006 104.078 0.332472C103.813 0.238938 103.531 0.202271 103.251 0.224859ZM72.3011 14.0949C71.6495 14.1068 71.0023 13.9843 70.4002 13.7349C69.798 13.4855 69.2538 13.1146 68.8014 12.6454C68.3491 12.1761 67.9983 11.6186 67.7712 11.0077C67.544 10.3968 67.4453 9.74564 67.4811 9.09486C67.4552 8.44934 67.5613 7.80532 67.7928 7.20218C68.0243 6.59905 68.3764 6.04947 68.8275 5.58708C69.2787 5.12468 69.8194 4.75917 70.4167 4.51291C71.014 4.26665 71.6552 4.14482 72.3011 4.15486C72.9483 4.14043 73.5915 4.25928 74.1908 4.50401C74.79 4.74873 75.3326 5.11411 75.7846 5.57743C76.2367 6.04074 76.5886 6.59209 76.8186 7.1972C77.0485 7.80232 77.1515 8.44825 77.1211 9.09486C77.1585 9.746 77.0608 10.3978 76.8342 11.0094C76.6076 11.621 76.2569 12.1791 75.8043 12.6486C75.3516 13.1182 74.8067 13.4891 74.2039 13.7379C73.601 13.9868 72.9532 14.1083 72.3011 14.0949ZM72.3011 0.0948589C71.1077 0.0679067 69.921 0.281608 68.8119 0.723215C67.7027 1.16482 66.6939 1.82529 65.8456 2.66522C64.9973 3.50515 64.3268 4.50733 63.8742 5.61199C63.4216 6.71665 63.1961 7.90116 63.2111 9.09486C63.1904 10.2901 63.4121 11.4771 63.8627 12.5844C64.3134 13.6916 64.9837 14.696 65.8331 15.5371C66.6826 16.3782 67.6937 17.0384 68.8053 17.478C69.917 17.9176 71.1062 18.1275 72.3011 18.0949C73.4991 18.1069 74.6873 17.8797 75.7963 17.4265C76.9052 16.9733 77.9125 16.3033 78.7592 15.4558C79.6058 14.6082 80.2747 13.6002 80.7266 12.4907C81.1786 11.3813 81.4045 10.1928 81.3911 8.99486C81.3928 7.81045 81.1573 6.63769 80.6984 5.54577C80.2396 4.45386 79.5667 3.46489 78.7195 2.63723C77.8722 1.80957 76.8678 1.15997 75.7655 0.726752C74.6631 0.293537 73.4852 0.085481 72.3011 0.114859V0.0948589ZM54.8411 13.8249H47.8411C48.3076 12.8695 48.66 11.8626 48.8911 10.8249C49.1736 9.37795 49.3275 7.90889 49.3511 6.43486L49.4611 4.34486H54.8911L54.8411 13.8249ZM60.2211 13.8249H59.1111V2.34486C59.1256 2.06544 59.0814 1.78609 58.9811 1.52486C58.8299 1.12397 58.554 0.782237 58.1939 0.549997C57.8338 0.317758 57.4087 0.207288 56.9811 0.234859H47.1711C46.9011 0.228511 46.6329 0.28041 46.3848 0.387021C46.1367 0.493633 45.9144 0.652455 45.7332 0.852677C45.5519 1.0529 45.416 1.28982 45.3345 1.54731C45.253 1.80481 45.228 2.07683 45.2611 2.34486V5.12486C45.3016 6.86762 45.1642 8.60997 44.8511 10.3249C44.6494 11.5761 44.1748 12.7676 43.4611 13.8149H42.9911C42.7111 13.7926 42.4295 13.8325 42.1666 13.9315C41.9037 14.0306 41.6659 14.1864 41.4701 14.3879C41.2743 14.5894 41.1254 14.8316 41.034 15.0973C40.9425 15.363 40.9108 15.6455 40.9411 15.9249V19.8649C40.9252 20.1461 40.9688 20.4276 41.0692 20.6908C41.1696 20.954 41.3245 21.1931 41.5237 21.3923C41.7229 21.5915 41.962 21.7464 42.2252 21.8468C42.4884 21.9471 42.7699 21.9908 43.0511 21.9749C43.3324 21.9908 43.6139 21.9471 43.8771 21.8468C44.1403 21.7464 44.3794 21.5915 44.5786 21.3923C44.7778 21.1931 44.9326 20.954 45.033 20.6908C45.1334 20.4276 45.1771 20.1461 45.1611 19.8649V17.9849H58.0711V19.8749C58.0554 20.1544 58.0986 20.434 58.1978 20.6958C58.297 20.9576 58.4501 21.1956 58.6471 21.3945C58.8441 21.5934 59.0806 21.7487 59.3414 21.8504C59.6022 21.9521 59.8815 21.9979 60.1611 21.9849C60.4424 22.0008 60.7239 21.9571 60.9871 21.8568C61.2503 21.7564 61.4894 21.6015 61.6886 21.4023C61.8878 21.2031 62.0426 20.964 62.143 20.7008C62.2434 20.4376 62.2871 20.1561 62.2711 19.8749V15.9249C62.3111 15.6437 62.2861 15.3571 62.1982 15.0871C62.1102 14.817 61.9616 14.5707 61.7637 14.367C61.5658 14.1633 61.3239 14.0077 61.0565 13.9119C60.7891 13.8162 60.5033 13.783 60.2211 13.8149V13.8249ZM31.4511 14.1049C30.7995 14.1168 30.1524 13.9943 29.5502 13.7449C28.948 13.4955 28.4038 13.1246 27.9514 12.6554C27.4991 12.1861 27.1483 11.6286 26.9212 11.0177C26.694 10.4068 26.5953 9.75564 26.6311 9.10486C26.6311 7.82652 27.139 6.60053 28.0429 5.6966C28.9468 4.79268 30.1728 4.28486 31.4511 4.28486C32.7295 4.28486 33.9555 4.79268 34.8594 5.6966C35.7633 6.60053 36.2711 7.82652 36.2711 9.10486C36.3117 9.75626 36.2161 10.409 35.9904 11.0214C35.7648 11.6338 35.4141 12.1925 34.9607 12.662C34.5073 13.1314 33.961 13.5012 33.3568 13.7479C32.7526 13.9946 32.1036 14.1128 31.4511 14.0949V14.1049ZM31.4511 0.104859C30.2577 0.0779067 29.071 0.291608 27.9618 0.733215C26.8527 1.17482 25.8439 1.83529 24.9956 2.67522C24.1473 3.51515 23.4768 4.51733 23.0242 5.62199C22.5716 6.72665 22.3461 7.91116 22.3611 9.10486C22.339 10.3013 22.5599 11.4899 23.0107 12.5984C23.4614 13.707 24.1326 14.7125 24.9834 15.554C25.8343 16.3955 26.8471 17.0555 27.9606 17.494C29.0741 17.9324 30.265 18.1403 31.4611 18.1049C32.659 18.1169 33.8473 17.8897 34.9563 17.4365C36.0652 16.9833 37.0725 16.3133 37.9192 15.4658C38.7658 14.6182 39.4347 13.6102 39.8866 12.5007C40.3386 11.3913 40.5645 10.2028 40.5511 9.00486C40.579 7.80769 40.3623 6.61743 39.9141 5.50694C39.466 4.39646 38.796 3.38911 37.945 2.54658C37.0941 1.70405 36.0801 1.04406 34.9652 0.607015C33.8503 0.169972 32.658 -0.0349284 31.4611 0.00485897L31.4511 0.104859ZM13.8911 13.7949H6.89114C7.35779 12.8396 7.71022 11.8326 7.94114 10.7949C8.22424 9.34804 8.37817 7.87893 8.40114 6.40486L8.51114 4.34486H13.9411L13.8911 13.7949ZM19.2711 13.7949H18.1611V2.34486C18.1771 2.06359 18.1334 1.78213 18.033 1.51891C17.9326 1.25569 17.7778 1.01664 17.5786 0.817439C17.3794 0.618234 17.1403 0.463361 16.8771 0.362964C16.6139 0.262568 16.3324 0.218913 16.0511 0.234859H6.25114C5.97866 0.224081 5.7071 0.272708 5.45529 0.377367C5.20349 0.482026 4.97746 0.640211 4.79289 0.84095C4.60833 1.04169 4.46964 1.28018 4.38645 1.53987C4.30327 1.79956 4.27757 2.07424 4.31114 2.34486V5.12486C4.3882 6.87416 4.25729 8.62643 3.92114 10.3449C3.71938 11.5961 3.24483 12.7876 2.53114 13.8349H2.06114C1.78106 13.8126 1.49953 13.8525 1.23662 13.9515C0.973699 14.0506 0.735871 14.2064 0.54009 14.4079C0.344309 14.6094 0.195394 14.8516 0.103964 15.1173C0.0125336 15.383 -0.01916 15.6655 0.0111406 15.9449V19.8849C-0.00391285 20.1689 0.0417949 20.4529 0.145212 20.7179C0.248629 20.9828 0.407378 21.2227 0.610861 21.4215C0.814343 21.6202 1.05788 21.7733 1.32521 21.8704C1.59255 21.9676 1.87753 22.0066 2.16114 21.9849C2.44241 22.0008 2.72387 21.9571 2.98709 21.8568C3.25031 21.7564 3.48936 21.6015 3.68856 21.4023C3.88777 21.2031 4.04264 20.964 4.14303 20.7008C4.24343 20.4376 4.28709 20.1561 4.27114 19.8749V17.9849H17.1811V19.8749C17.1652 20.1561 17.2088 20.4376 17.3092 20.7008C17.4096 20.964 17.5645 21.2031 17.7637 21.4023C17.9629 21.6015 18.202 21.7564 18.4652 21.8568C18.7284 21.9571 19.0099 22.0008 19.2911 21.9849C19.5724 22.0008 19.8539 21.9571 20.1171 21.8568C20.3803 21.7564 20.6194 21.6015 20.8186 21.4023C21.0178 21.2031 21.1726 20.964 21.273 20.7008C21.3734 20.4376 21.4171 20.1561 21.4011 19.8749V15.9249C21.431 15.6404 21.397 15.3529 21.3015 15.0834C21.206 14.8138 21.0515 14.5689 20.8493 14.3667C20.6471 14.1645 20.4022 14.01 20.1326 13.9145C19.8631 13.819 19.5756 13.785 19.2911 13.8149" fill="black"/>
</svg>
